<svg width="16" height="16" viewBox="0 0 16 16" fill="none" xmlns="http://www.w3.org/2000/svg">
<g clip-path="url(#clip0_5552_2024)">
<path d="M15.9813 1.19443C15.9466 0.558871 15.4411 0.0534649 14.8056 0.0187774C13.5231 -0.0512851 11.0136 0.0168712 8.61401 1.25803C7.39073 1.89078 6.09698 2.96356 5.06451 4.20131C5.05179 4.21656 5.03941 4.2319 5.02679 4.24718L2.68366 4.42818C2.29798 4.458 1.95445 4.66015 1.74113 4.98278L0.14257 7.40065C-0.0192109 7.64534 -0.0449297 7.95156 0.0737265 8.21978C0.192414 8.48803 0.436289 8.67496 0.726133 8.71987L2.70023 9.02562C2.69326 9.064 2.68626 9.10234 2.67985 9.14071C2.61413 9.53384 2.74438 9.93803 3.02832 10.2219L5.77807 12.9717C6.01348 13.2071 6.33157 13.3369 6.65751 13.3369C6.72463 13.3369 6.79213 13.3314 6.85932 13.3202C6.8977 13.3137 6.93604 13.3067 6.97441 13.2998L7.28016 15.2739C7.32507 15.5637 7.51201 15.8077 7.7802 15.9263C7.89179 15.9757 8.00988 16.0001 8.12745 16.0001C8.29254 16 8.45648 15.952 8.59935 15.8575L11.0172 14.2589C11.3399 14.0456 11.542 13.702 11.5718 13.3164L11.7528 10.9733C11.768 10.9607 11.7834 10.9483 11.7987 10.9356C13.0364 9.90309 14.1093 8.60934 14.742 7.38603C15.9832 4.98631 16.0512 2.47678 15.9813 1.19443ZM10.5002 13.4768L8.18735 15.006L7.88935 13.0821C8.86685 12.7947 9.83382 12.3344 10.755 11.7177L10.6371 13.2441C10.6298 13.3393 10.5799 13.4242 10.5002 13.4768ZM6.44098 12.3088L3.6912 9.55903C3.62104 9.48884 3.5886 9.39025 3.60451 9.29528C3.68626 8.80643 3.81329 8.34109 3.97054 7.90271L8.09641 12.0286C7.56991 12.2172 7.09832 12.3297 6.70473 12.3955C6.6096 12.4113 6.51113 12.379 6.44098 12.3088ZM2.75588 5.3629L4.28226 5.245C3.66557 6.16621 3.20526 7.13318 2.91785 8.11068L0.993977 7.81272L2.52316 5.49984C2.57585 5.42015 2.6607 5.37025 2.75588 5.3629ZM11.1982 10.2156C10.4409 10.8472 9.70585 11.3041 9.02829 11.6347L4.36513 6.97156C4.7982 6.08706 5.32673 5.35053 5.78441 4.80184C6.73988 3.65637 7.92823 2.66821 9.04476 2.09071C11.2471 0.951559 13.5674 0.890215 14.7545 0.95484C14.9117 0.963402 15.0366 1.08837 15.0452 1.24553C15.1099 2.43265 15.0484 4.75296 13.9093 6.95531C13.3318 8.07181 12.3437 9.26012 11.1982 10.2156Z" fill="#01AFF0"/>
<path d="M10.9609 7.38241C11.5609 7.38234 12.1613 7.15391 12.6181 6.69706C13.0608 6.25441 13.3045 5.66584 13.3045 5.03984C13.3045 4.41384 13.0608 3.82528 12.6181 3.38262C11.7043 2.46878 10.2174 2.46884 9.30366 3.38262C8.86097 3.82528 8.61719 4.41384 8.61719 5.03984C8.61719 5.66584 8.861 6.25441 9.30366 6.69706C9.76059 7.154 10.3606 7.38247 10.9609 7.38241ZM9.9665 4.0455C10.2406 3.77134 10.6007 3.63428 10.9608 3.63428C11.3209 3.63428 11.681 3.77134 11.9552 4.0455C12.2208 4.31109 12.367 4.66422 12.367 5.03981C12.367 5.41541 12.2208 5.76856 11.9552 6.03416C11.4069 6.58244 10.5148 6.58241 9.96647 6.03416C9.70088 5.76856 9.55459 5.41544 9.55459 5.03984C9.55459 4.66425 9.70091 4.31109 9.9665 4.0455Z" fill="#01AFF0"/>
<path d="M0.4785 13.1847C0.598469 13.1847 0.718437 13.139 0.809937 13.0474L2.34034 11.517C2.52341 11.3339 2.52341 11.0372 2.34034 10.8541C2.15731 10.671 1.8605 10.671 1.67744 10.8541L0.147062 12.3845C-0.036 12.5676 -0.036 12.8643 0.147062 13.0474C0.238562 13.1389 0.358531 13.1847 0.4785 13.1847Z" fill="#01AFF0"/>
<path d="M3.74252 12.2584C3.55948 12.0753 3.26267 12.0753 3.07961 12.2584L0.137297 15.2007C-0.0457656 15.3838 -0.0457656 15.6806 0.137297 15.8636C0.228828 15.9552 0.348766 16.0009 0.468734 16.0009C0.588703 16.0009 0.708672 15.9552 0.800172 15.8636L3.74248 12.9213C3.92558 12.7382 3.92558 12.4415 3.74252 12.2584Z" fill="#01AFF0"/>
<path d="M4.48216 13.6607L2.95175 15.1911C2.76869 15.3742 2.76869 15.671 2.95175 15.854C3.04328 15.9456 3.16325 15.9914 3.28319 15.9914C3.40312 15.9914 3.52312 15.9456 3.61462 15.854L5.14503 14.3236C5.32809 14.1406 5.32809 13.8438 5.14503 13.6607C4.962 13.4777 4.66519 13.4777 4.48216 13.6607Z" fill="#01AFF0"/>
</g>
<defs>
<clipPath id="clip0_5552_2024">
<rect width="16" height="16" fill="white"/>
</clipPath>
</defs>
</svg>
