<svg width="768" height="364" viewBox="0 0 768 364" fill="none" xmlns="http://www.w3.org/2000/svg">
<rect width="768" height="364" fill="#F7F7F7"/>
<path d="M429.5 126H338.5C332.701 126 328 130.701 328 136.5V227.5C328 233.299 332.701 238 338.5 238H429.5C435.299 238 440 233.299 440 227.5V136.5C440 130.701 435.299 126 429.5 126ZM433 227.5C433 229.433 431.433 231 429.5 231H338.5C336.567 231 335 229.433 335 227.5V136.5C335 134.567 336.567 133 338.5 133H429.5C431.433 133 433 134.567 433 136.5V227.5Z" fill="#939393"/>
<path d="M403.985 186.515C402.62 185.157 400.415 185.157 399.05 186.515L391 194.565L375.985 179.55C374.62 178.192 372.415 178.192 371.05 179.55L346.55 204.05C345.197 205.43 345.218 207.646 346.599 208.999C347.241 209.629 348.101 209.987 349 210H419C420.933 210.011 422.509 208.453 422.52 206.52C422.526 205.58 422.153 204.677 421.485 204.015L403.985 186.515Z" fill="#939393"/>
<path d="M394.5 175C400.299 175 405 170.299 405 164.5C405 158.701 400.299 154 394.5 154C388.701 154 384 158.701 384 164.5C384 170.299 388.701 175 394.5 175Z" fill="#939393"/>
</svg>
