<svg width="16" height="16" viewBox="0 0 16 16" fill="none" xmlns="http://www.w3.org/2000/svg">
<g clip-path="url(#clip0_5552_2051)">
<path d="M11.9993 0H5.33268C4.68484 0.00085225 4.05128 0.19047 3.50949 0.545666C2.9677 0.900862 2.54115 1.40624 2.28202 2H1.33268C1.15587 2 0.986302 2.07024 0.861278 2.19526C0.736253 2.32029 0.666016 2.48986 0.666016 2.66667C0.666016 2.84348 0.736253 3.01305 0.861278 3.13807C0.986302 3.2631 1.15587 3.33333 1.33268 3.33333H1.99935V4.66667H1.33268C1.15587 4.66667 0.986302 4.7369 0.861278 4.86193C0.736253 4.98695 0.666016 5.15652 0.666016 5.33333C0.666016 5.51014 0.736253 5.67971 0.861278 5.80474C0.986302 5.92976 1.15587 6 1.33268 6H1.99935V7.33333H1.33268C1.15587 7.33333 0.986302 7.40357 0.861278 7.5286C0.736253 7.65362 0.666016 7.82319 0.666016 8C0.666016 8.17681 0.736253 8.34638 0.861278 8.47141C0.986302 8.59643 1.15587 8.66667 1.33268 8.66667H1.99935V10H1.33268C1.15587 10 0.986302 10.0702 0.861278 10.1953C0.736253 10.3203 0.666016 10.4899 0.666016 10.6667C0.666016 10.8435 0.736253 11.013 0.861278 11.1381C0.986302 11.2631 1.15587 11.3333 1.33268 11.3333H1.99935V12.6667H1.33268C1.15587 12.6667 0.986302 12.7369 0.861278 12.8619C0.736253 12.987 0.666016 13.1565 0.666016 13.3333C0.666016 13.5101 0.736253 13.6797 0.861278 13.8047C0.986302 13.9298 1.15587 14 1.33268 14H2.28202C2.54115 14.5938 2.9677 15.0991 3.50949 15.4543C4.05128 15.8095 4.68484 15.9991 5.33268 16H11.9993C12.8831 15.9989 13.7303 15.6474 14.3552 15.0225C14.9801 14.3976 15.3316 13.5504 15.3327 12.6667V3.33333C15.3316 2.4496 14.9801 1.60237 14.3552 0.97748C13.7303 0.352588 12.8831 0.00105857 11.9993 0ZM13.9993 12.6667C13.9993 13.1971 13.7886 13.7058 13.4136 14.0809C13.0385 14.456 12.5298 14.6667 11.9993 14.6667H5.33268C4.80225 14.6667 4.29354 14.456 3.91847 14.0809C3.5434 13.7058 3.33268 13.1971 3.33268 12.6667V3.33333C3.33268 2.8029 3.5434 2.29419 3.91847 1.91912C4.29354 1.54405 4.80225 1.33333 5.33268 1.33333H11.9993C12.5298 1.33333 13.0385 1.54405 13.4136 1.91912C13.7886 2.29419 13.9993 2.8029 13.9993 3.33333V12.6667ZM8.66602 8C9.19645 8 9.70516 7.78929 10.0802 7.41421C10.4553 7.03914 10.666 6.53043 10.666 6C10.666 5.46957 10.4553 4.96086 10.0802 4.58579C9.70516 4.21071 9.19645 4 8.66602 4C8.13558 4 7.62687 4.21071 7.2518 4.58579C6.87673 4.96086 6.66602 5.46957 6.66602 6C6.66602 6.53043 6.87673 7.03914 7.2518 7.41421C7.62687 7.78929 8.13558 8 8.66602 8ZM11.9993 12C11.9993 12.1768 11.9291 12.3464 11.8041 12.4714C11.6791 12.5964 11.5095 12.6667 11.3327 12.6667C11.1559 12.6667 10.9863 12.5964 10.8613 12.4714C10.7363 12.3464 10.666 12.1768 10.666 12C10.666 11.4696 10.4553 10.9609 10.0802 10.5858C9.70516 10.2107 9.19645 10 8.66602 10C8.13558 10 7.62687 10.2107 7.2518 10.5858C6.87673 10.9609 6.66602 11.4696 6.66602 12C6.66602 12.1768 6.59578 12.3464 6.47075 12.4714C6.34573 12.5964 6.17616 12.6667 5.99935 12.6667C5.82254 12.6667 5.65297 12.5964 5.52794 12.4714C5.40292 12.3464 5.33268 12.1768 5.33268 12C5.47335 7.59467 11.86 7.596 11.9993 12Z" fill="#01AFF0"/>
</g>
<defs>
<clipPath id="clip0_5552_2051">
<rect width="16" height="16" fill="white"/>
</clipPath>
</defs>
</svg>
