<svg viewBox="0 0 76 77" fill="none" xmlns="http://www.w3.org/2000/svg">
<g filter="url(#filter0_dd_3055_3344)">
<path d="M15.127 6.88867H60.8732C64.3184 6.88867 67.1113 9.68157 67.1113 13.1268V46.3968C67.1113 49.842 64.3184 52.6349 60.8732 52.6349H53.4914L54.6226 62.803C54.7487 63.9445 53.9255 64.9719 52.784 65.098C52.1946 65.1631 51.6054 64.9734 51.1645 64.5767L37.8941 52.6349H15.127C11.6818 52.6349 8.88892 49.842 8.88892 46.3968V13.1268C8.88892 9.68157 11.6818 6.88867 15.127 6.88867Z" fill="url(#paint0_linear_3055_3344)"/>
<path fill-rule="evenodd" clip-rule="evenodd" d="M68 13.127C68 9.19086 64.8091 6 60.873 6H15.1268C11.1907 6 7.99981 9.19086 7.99981 13.127V46.397C7.99981 50.3331 11.1907 53.524 15.1268 53.524H37.5528L50.5697 65.2377C51.1989 65.8039 52.0399 66.0746 52.8813 65.9818C54.5107 65.8018 55.6859 64.3351 55.5059 62.7056L54.4845 53.524H60.873C64.8091 53.524 68 50.3331 68 46.397V13.127ZM60.873 7.77778C63.8273 7.77778 66.2222 10.1727 66.2222 13.127V46.397C66.2222 49.3513 63.8273 51.7462 60.873 51.7462H52.4979L53.7388 62.9008C53.811 63.5543 53.3398 64.1425 52.6863 64.2147C52.3488 64.252 52.0114 64.1434 51.7589 63.9162L38.2349 51.7462H15.1268C12.1725 51.7462 9.7776 49.3513 9.7776 46.397V13.127C9.7776 10.1727 12.1725 7.77778 15.1268 7.77778H60.873Z" fill="url(#paint1_linear_3055_3344)"/>
<path fill-rule="evenodd" clip-rule="evenodd" d="M29.7844 47.4607C47.0441 47.4607 61.0359 33.469 61.0359 16.2092C61.0359 12.963 60.541 9.83236 59.6224 6.88867H60.8732C64.3184 6.88867 67.1113 9.68157 67.1113 13.1268V46.3967C67.1113 49.842 64.3184 52.6349 60.8732 52.6349H53.4914L54.6226 62.803C54.7487 63.9445 53.9255 64.9719 52.784 65.098C52.1946 65.1631 51.6054 64.9734 51.1645 64.5767L37.8941 52.6349H15.127C11.6818 52.6349 8.88892 49.842 8.88892 46.3967V39.4482C14.4252 44.4294 21.7508 47.4607 29.7844 47.4607Z" fill="white" fill-opacity="0.06"/>
<path d="M15.6158 23.7322H17.1461V29.1218C18.0653 28.6677 19.0126 28.4407 19.988 28.4407C20.9633 28.4407 21.9078 28.6677 22.8215 29.1218V23.7322H24.3517V35.9995H22.8215V30.8874C22.4011 30.5679 21.947 30.3297 21.4594 30.1728C20.9773 30.0102 20.4868 29.9289 19.988 29.9289C19.4835 29.9289 18.9874 30.0102 18.4998 30.1728C18.0177 30.3297 17.5665 30.5679 17.1461 30.8874V35.9995H15.6158V23.7322ZM29.1863 27.9951H29.5563C29.6123 28.0007 29.6712 28.0035 29.7328 28.0035C29.7889 28.0091 29.8449 28.0175 29.901 28.0287H29.9094C29.9655 28.0343 30.0215 28.0427 30.0776 28.054H30.086C30.142 28.0652 30.1953 28.0764 30.2457 28.0876H30.2625C30.313 28.1044 30.3634 28.1184 30.4139 28.1296C30.4195 28.1296 30.4251 28.1324 30.4307 28.138C30.4811 28.1492 30.5316 28.1633 30.582 28.1801H30.5989C30.6437 28.1969 30.6913 28.2137 30.7418 28.2305C30.7474 28.2361 30.753 28.2389 30.7586 28.2389C30.8091 28.2557 30.8567 28.2754 30.9015 28.2978C30.9072 28.2978 30.9156 28.3006 30.9268 28.3062C30.9716 28.323 31.0137 28.3426 31.0529 28.365C31.0641 28.3707 31.0725 28.3735 31.0781 28.3735C31.123 28.3959 31.165 28.4183 31.2042 28.4407C31.2154 28.4463 31.2267 28.4519 31.2379 28.4575C31.2771 28.4744 31.3163 28.494 31.3556 28.5164C31.3668 28.522 31.378 28.5276 31.3892 28.5332C31.4228 28.5612 31.4593 28.5865 31.4985 28.6089C31.5097 28.6145 31.5209 28.6201 31.5321 28.6257C31.5714 28.6481 31.6078 28.6733 31.6415 28.7014C31.6527 28.707 31.6639 28.7154 31.6751 28.7266L31.776 28.8023C31.7872 28.8079 31.7984 28.8163 31.8096 28.8275L31.9105 28.9032C31.9217 28.9144 31.9329 28.9228 31.9441 28.9284V28.9368C32.6504 29.531 33.1044 30.2961 33.3062 31.2322C33.3567 31.4788 33.3819 31.7339 33.3819 31.9973C33.3819 32.2608 33.3567 32.5158 33.3062 32.7624H27.0171C27.1852 33.2669 27.4795 33.6789 27.8999 33.9984C28.3259 34.3123 28.8164 34.4693 29.3713 34.4693C29.9374 34.4693 30.4363 34.3039 30.8679 33.9732L31.9441 35.0578C31.5966 35.3549 31.2014 35.5875 30.7586 35.7557C30.3214 35.9182 29.859 35.9995 29.3713 35.9995C28.7267 35.9995 28.1269 35.8594 27.572 35.5791C27.0227 35.2932 26.5602 34.9065 26.1847 34.4188C25.8147 33.9311 25.5681 33.379 25.4448 32.7624C25.4279 32.6671 25.4139 32.5747 25.4027 32.485C25.3971 32.4794 25.3943 32.4738 25.3943 32.4682C25.3943 32.4401 25.3915 32.4121 25.3859 32.3841V32.3673C25.3859 32.3392 25.3831 32.314 25.3775 32.2916V32.1907C25.3719 32.1739 25.3691 32.1543 25.3691 32.1318V31.8712C25.3691 31.8432 25.3719 31.8179 25.3775 31.7955V31.703C25.3831 31.6806 25.3859 31.6554 25.3859 31.6274V31.6021C25.3915 31.5797 25.3943 31.5545 25.3943 31.5265C25.3943 31.5209 25.3971 31.5152 25.4027 31.5096C25.4027 31.4816 25.4055 31.4536 25.4111 31.4256V31.4172C25.4167 31.3835 25.4223 31.3527 25.4279 31.3247C25.4335 31.291 25.4392 31.2602 25.4448 31.2322C25.456 31.1705 25.4672 31.1145 25.4784 31.064V31.0556C25.5232 30.8874 25.5765 30.7221 25.6381 30.5595C25.655 30.5091 25.6746 30.4586 25.697 30.4082L25.7054 30.3998C25.7727 30.2428 25.8483 30.0943 25.9324 29.9542C25.9324 29.9486 25.9352 29.9458 25.9408 29.9458C25.9689 29.9009 25.9969 29.8561 26.0249 29.8112C26.0249 29.8056 26.0277 29.8 26.0333 29.7944C26.0613 29.7496 26.0922 29.7075 26.1258 29.6683V29.6599C26.1875 29.5702 26.2547 29.4833 26.3276 29.3992C26.3332 29.3992 26.336 29.3964 26.336 29.3908C26.3696 29.3516 26.4033 29.3124 26.4369 29.2731C26.4425 29.2731 26.4481 29.2703 26.4537 29.2647C26.4873 29.2255 26.5238 29.189 26.563 29.1554C26.563 29.1498 26.5658 29.147 26.5714 29.147C26.6499 29.0685 26.7284 28.9956 26.8069 28.9284L26.8153 28.92L26.9414 28.8191C26.947 28.8191 26.9526 28.8163 26.9582 28.8107C26.9974 28.777 27.0367 28.7462 27.0759 28.7182C27.0815 28.7126 27.0871 28.7098 27.0927 28.7098C27.1376 28.6761 27.1824 28.6453 27.2273 28.6173C27.2721 28.5893 27.3169 28.5612 27.3618 28.5332H27.3786C27.4178 28.5052 27.4627 28.48 27.5131 28.4575C27.5187 28.4519 27.5243 28.4463 27.5299 28.4407C27.5748 28.4183 27.6196 28.3959 27.6645 28.3735C27.6701 28.3735 27.6785 28.3707 27.6897 28.365C27.7345 28.3426 27.7794 28.323 27.8242 28.3062C27.8298 28.3006 27.8354 28.2978 27.841 28.2978C27.8859 28.281 27.9335 28.2614 27.984 28.2389H27.9924L28.1437 28.1885C28.1493 28.1829 28.1549 28.1801 28.1605 28.1801C28.211 28.1633 28.2614 28.1492 28.3119 28.138C28.3175 28.1324 28.3259 28.1296 28.3371 28.1296C28.3876 28.1184 28.4352 28.1044 28.48 28.0876H28.5053C28.5557 28.0764 28.6062 28.0652 28.6566 28.054H28.665C28.7155 28.0427 28.7687 28.0343 28.8248 28.0287H28.85C28.9004 28.0231 28.9509 28.0175 29.0013 28.0119C29.0069 28.0063 29.0154 28.0035 29.0266 28.0035C29.077 28.0035 29.1303 28.0007 29.1863 27.9951ZM29.3713 29.5254C29.304 29.5254 29.2368 29.5282 29.1695 29.5338H29.1611C29.0994 29.5394 29.0378 29.545 28.9761 29.5506C28.9705 29.5562 28.9649 29.559 28.9593 29.559C28.8976 29.5702 28.836 29.5814 28.7743 29.5926H28.7659C28.7043 29.6094 28.6454 29.6291 28.5893 29.6515H28.5809C28.5193 29.6683 28.4604 29.6907 28.4044 29.7187H28.396C28.3399 29.7412 28.2839 29.7692 28.2278 29.8028H28.2194C28.1689 29.8308 28.1157 29.8617 28.0596 29.8953C28.0036 29.9289 27.9503 29.9654 27.8999 30.0046C27.799 30.0775 27.7037 30.1588 27.614 30.2484V30.2568C27.5692 30.3017 27.5271 30.3465 27.4879 30.3914H27.4795C27.4403 30.4418 27.4038 30.4923 27.3702 30.5427H27.3618C27.216 30.7501 27.1011 30.9799 27.0171 31.2322H31.7255C31.5574 30.7277 31.2659 30.3213 30.8511 30.013C30.8455 30.0074 30.8399 30.0018 30.8343 29.9962C30.7894 29.9626 30.7418 29.9317 30.6913 29.9037C30.6857 29.8981 30.6801 29.8925 30.6745 29.8869C30.6241 29.8589 30.5764 29.8308 30.5316 29.8028C30.5204 29.8028 30.512 29.8 30.5064 29.7944L30.355 29.7187C30.3494 29.7187 30.341 29.7159 30.3298 29.7103C30.2794 29.6879 30.2261 29.6683 30.1701 29.6515C30.1644 29.6515 30.1588 29.6487 30.1532 29.6431L29.9767 29.5926H29.9683C29.9066 29.5758 29.8449 29.5646 29.7833 29.559L29.7749 29.5506C29.7076 29.545 29.6432 29.5394 29.5815 29.5338H29.5731C29.5058 29.5282 29.4386 29.5254 29.3713 29.5254ZM34.3993 24.6319H35.9295V35.9995H34.3993V24.6319ZM36.9385 24.6319H38.4687V35.9995H36.9385V24.6319ZM43.2277 27.9867C43.962 27.9867 44.6318 28.1689 45.2372 28.5332C45.8482 28.892 46.333 29.3768 46.6918 29.9878C47.0561 30.5932 47.2383 31.263 47.2383 31.9973C47.2383 32.7316 47.0561 33.4014 46.6918 34.0068C46.333 34.6122 45.8482 35.0971 45.2372 35.4614C44.6318 35.8201 43.962 35.9995 43.2277 35.9995C42.4934 35.9995 41.8235 35.8201 41.2182 35.4614C40.6128 35.0971 40.1279 34.6122 39.7636 34.0068C39.4048 33.4014 39.2255 32.7316 39.2255 31.9973C39.2255 31.263 39.4048 30.5932 39.7636 29.9878C40.1279 29.3768 40.6128 28.892 41.2182 28.5332C41.8235 28.1689 42.4934 27.9867 43.2277 27.9867ZM43.2529 29.5169C42.569 29.5169 41.9861 29.758 41.504 30.24C41.022 30.7221 40.7809 31.305 40.7809 31.9889C40.7809 32.6784 41.022 33.2641 41.504 33.7462C41.9861 34.2282 42.569 34.4693 43.2529 34.4693C43.9424 34.4693 44.5253 34.2282 45.0018 33.7462C45.4838 33.2641 45.7248 32.6784 45.7248 31.9889C45.7248 31.305 45.4838 30.7221 45.0018 30.24C44.5253 29.758 43.9424 29.5169 43.2529 29.5169ZM52.014 24.6067C52.5073 24.6067 52.9725 24.6908 53.4098 24.8589C53.847 25.0215 54.2422 25.2513 54.5953 25.5484L53.5107 26.6246C53.079 26.2995 52.5802 26.1369 52.014 26.1369C51.3302 26.1369 50.7472 26.378 50.2652 26.86C49.7831 27.3365 49.5421 27.9194 49.5421 28.6089V31.1985H52.0224V32.7288H49.5421V39.3207H48.0118V32.7288H48.0034V31.1985H48.0118V28.6089C48.023 27.8634 48.2052 27.1907 48.5583 26.591C48.9171 25.9912 49.3991 25.5119 50.0045 25.1532C50.6155 24.7888 51.2853 24.6067 52.014 24.6067ZM53.7209 28.0035H55.2511V32.0141C55.2623 32.5859 55.4277 33.0847 55.7472 33.5107C56.0723 33.9311 56.4927 34.2198 57.0084 34.3768C57.5297 34.2142 57.9529 33.9199 58.278 33.4939C58.6031 33.0679 58.7657 32.5719 58.7657 32.0057V28.0035H60.2959V36.0163C60.2903 36.7562 60.1081 37.4261 59.7494 38.0258C59.3906 38.6312 58.9086 39.1133 58.3032 39.472C57.6978 39.8364 57.028 40.0185 56.2937 40.0185C55.806 40.0185 55.3436 39.9345 54.9064 39.7663C54.4692 39.6037 54.074 39.3739 53.7209 39.0768L54.8055 37.9922C55.2371 38.3229 55.7332 38.4883 56.2937 38.4883C56.9832 38.4883 57.5661 38.2472 58.0426 37.7652C58.5246 37.2831 58.7657 36.7002 58.7657 36.0163V35.1503C58.4518 35.4025 58.1042 35.6015 57.7231 35.7473H56.2937C55.5426 35.4502 54.9316 34.9765 54.4608 34.3263C53.9955 33.6761 53.7489 32.9278 53.7209 32.0814V28.0035Z" fill="white"/>
</g>
<defs>
<filter id="filter0_dd_3055_3344" x="-2.86102e-05" y="0.222201" width="76.0001" height="75.9996" filterUnits="userSpaceOnUse" color-interpolation-filters="sRGB">
<feFlood flood-opacity="0" result="BackgroundImageFix"/>
<feColorMatrix in="SourceAlpha" type="matrix" values="0 0 0 0 0 0 0 0 0 0 0 0 0 0 0 0 0 0 127 0" result="hardAlpha"/>
<feMorphology radius="0.222223" operator="dilate" in="SourceAlpha" result="effect1_dropShadow_3055_3344"/>
<feOffset/>
<feColorMatrix type="matrix" values="0 0 0 0 0 0 0 0 0 0 0 0 0 0 0 0 0 0 0.06 0"/>
<feBlend mode="normal" in2="BackgroundImageFix" result="effect1_dropShadow_3055_3344"/>
<feColorMatrix in="SourceAlpha" type="matrix" values="0 0 0 0 0 0 0 0 0 0 0 0 0 0 0 0 0 0 127 0" result="hardAlpha"/>
<feOffset dy="2.22223"/>
<feGaussianBlur stdDeviation="4.00001"/>
<feColorMatrix type="matrix" values="0 0 0 0 0 0 0 0 0 0 0 0 0 0 0 0 0 0 0.16 0"/>
<feBlend mode="normal" in2="effect1_dropShadow_3055_3344" result="effect2_dropShadow_3055_3344"/>
<feBlend mode="normal" in="SourceGraphic" in2="effect2_dropShadow_3055_3344" result="shape"/>
</filter>
<linearGradient id="paint0_linear_3055_3344" x1="29.9914" y1="5.42042" x2="63.1636" y2="55.8423" gradientUnits="userSpaceOnUse">
<stop stop-color="#FC7CBF"/>
<stop offset="1" stop-color="#49C4F1"/>
</linearGradient>
<linearGradient id="paint1_linear_3055_3344" x1="29.7466" y1="4.48691" x2="63.9318" y2="56.4484" gradientUnits="userSpaceOnUse">
<stop stop-color="#FF54AE"/>
<stop offset="1" stop-color="#00AFF0"/>
</linearGradient>
</defs>
</svg>
