<svg width="20" height="20" viewBox="0 0 20 20" fill="none" xmlns="http://www.w3.org/2000/svg">
<path d="M7.9975 7.94157C7.83898 8.36242 7.8503 8.79459 7.83709 9.23242C7.79368 9.52871 7.73518 9.82123 7.69177 10.1156C7.6295 9.93635 7.56344 9.75895 7.52004 9.57212C7.39926 9.03992 7.20676 8.43224 6.92179 7.96422C6.83876 7.83023 6.58965 7.79437 6.51604 7.96422C6.35752 8.33788 6.30657 8.76817 6.28392 9.17014C6.24806 9.80613 6.08954 10.4308 6.0801 11.0687C6.07821 11.2102 6.19333 11.2744 6.30279 11.263C6.4047 11.4178 6.67269 11.4253 6.73119 11.2064C6.85197 10.7573 6.87273 10.2685 6.88971 9.80424C6.89349 9.67025 6.91991 9.53815 6.94633 9.40415C7.00861 9.6476 7.069 9.88917 7.14637 10.1194C7.26715 10.478 7.37095 11.2687 7.81444 11.3914C7.92956 11.4235 8.04468 11.3706 8.10696 11.2725C8.23906 11.0649 8.19566 10.8422 8.2334 10.6101C8.27681 10.3421 8.29002 10.0779 8.31644 9.80802C8.34286 9.52682 8.34475 9.23619 8.35984 8.94934C8.37872 8.80591 8.39381 8.6606 8.40325 8.51906C8.40325 8.50396 8.40514 8.48697 8.40702 8.47188C8.42778 8.33788 8.45798 8.20578 8.4995 8.07745C8.60707 7.75285 8.11262 7.6283 7.99561 7.9378L7.9975 7.94157Z" fill="#28ABEA"/>
<path d="M10.0714 10.9184C10.0205 10.9184 9.92231 10.9316 9.81852 10.9467C9.7468 10.9335 9.67509 10.9184 9.60338 10.9071C9.6298 10.5994 9.67509 10.2881 9.71661 9.97667C9.79965 9.98045 9.88269 9.98799 9.96572 10.0012C9.97705 10.005 9.99025 10.0088 10.0016 10.0125C10.0563 10.0276 10.1091 10.0427 10.162 10.0578C10.2582 10.1012 10.3488 10.1541 10.4526 10.1786C10.4923 10.188 10.5338 10.1843 10.5715 10.1711C10.7489 10.2163 10.9697 10.0465 10.9188 9.82947C10.8452 9.51619 10.5357 9.58413 10.2998 9.5294C10.1695 9.49921 10.0412 9.49921 9.91477 9.46146C9.86759 9.44637 9.82041 9.43693 9.777 9.43316C9.79776 9.16517 9.80342 8.89719 9.77134 8.63298C9.7921 8.60845 9.80531 8.57825 9.80908 8.54806C10.0808 8.66506 10.3601 8.77641 10.6546 8.76886C10.9848 8.75942 10.9697 8.29895 10.6546 8.26686C10.6111 8.26309 10.5677 8.25554 10.5262 8.24799C10.4715 8.2178 10.4054 8.20647 10.3262 8.19138C10.1997 8.16684 10.0808 8.12344 9.9544 8.0989C9.85626 8.07248 9.75624 8.04984 9.65433 8.03662C9.50524 8.00077 9.35616 7.96302 9.19763 7.96491C8.95229 7.9668 8.95984 8.3065 9.18631 8.34235C9.11082 8.68771 9.11459 9.05571 9.08062 9.40485C9.03722 9.86533 8.9957 10.3239 8.98438 10.7844C8.98438 10.8429 8.99759 10.892 9.02212 10.9316C9.02778 11.1109 9.06741 11.277 9.2316 11.4109C9.47316 11.6091 9.99592 11.6733 10.3356 11.5959C10.3432 11.5959 10.3507 11.5959 10.3583 11.5997C10.5055 11.6261 10.6093 11.5997 10.7187 11.4996C10.7338 11.4864 10.7451 11.4694 10.7546 11.4506C10.781 11.4355 10.8074 11.4166 10.8319 11.394C10.8942 11.3355 10.8829 11.2449 10.8319 11.1845C10.6904 11.0184 10.2884 10.9278 10.0714 10.9184Z" fill="#28ABEA"/>
<path d="M13.7623 9.02446C13.5169 9.3868 13.4528 9.79821 13.3339 10.2172C13.2584 10.487 13.2282 10.7796 13.1489 11.0457C13.132 10.8135 13.1527 10.5663 13.1169 10.3719C13.0602 10.0511 13.1791 9.59251 12.9225 9.35283C12.8206 9.25847 12.6451 9.2245 12.5488 9.35283C12.3507 9.61704 12.2865 9.91522 12.1412 10.2058C12.0959 10.2964 12.0695 10.438 12.0393 10.5776C12.0261 10.0039 12.1223 9.40567 11.9506 8.8716C11.9298 8.80366 11.8845 8.76402 11.8336 8.74893C11.8298 8.73572 11.826 8.72062 11.8203 8.70741C11.7562 8.5168 11.5297 8.5168 11.4656 8.70741C11.3127 9.15845 11.3523 9.71706 11.3504 10.1945C11.3504 10.4229 11.3184 10.6493 11.3146 10.8777C11.3108 11.074 11.3938 11.2155 11.4297 11.3816C11.4712 11.5741 11.6486 11.6382 11.7958 11.5986C11.8411 11.6118 11.8883 11.6137 11.9336 11.5948C12.3469 11.4231 12.4752 11.0079 12.5941 10.5833C12.6073 10.6644 12.6205 10.7456 12.6224 10.823C12.6318 11.1947 12.7017 11.6099 12.9168 11.9062C13.0017 12.0232 13.198 12.0119 13.2829 11.9062C13.8755 11.1834 13.7283 10.0983 14.1869 9.29244C14.3586 8.99238 13.9453 8.74893 13.7623 9.02068V9.02446Z" fill="#28ABEA"/>
<path d="M4.04982 8.70753C4.04982 8.70753 4.04737 8.70753 4.04492 8.70508C4.04492 8.70508 4.04492 8.70508 4.04982 8.70508V8.70753Z" fill="#28ABEA"/>
<path d="M16.4203 10.3796C16.3467 10.2758 16.2598 10.2739 16.1466 10.2381C16.0711 10.2154 15.9994 10.1928 15.9258 10.1796C15.9258 9.66437 15.8805 9.14161 15.7994 8.62641C15.8654 8.59621 15.9352 8.57734 16.0088 8.57545C16.2976 8.5679 16.2976 8.11686 16.0088 8.12818C15.9069 8.13196 15.8126 8.14894 15.7201 8.18103C15.6956 8.05458 15.6692 7.92814 15.639 7.8017C15.605 7.65638 15.5578 7.51673 15.4974 7.38085C15.505 7.37519 15.5125 7.36953 15.5201 7.36387C15.6069 7.30159 15.7503 7.21478 15.8598 7.2563C16.0296 7.32046 16.1504 7.03738 15.9843 6.96189C15.7692 6.86376 15.5352 6.94679 15.3408 7.05625C15.3389 7.05625 15.337 7.06003 15.3332 7.06003C15.3087 7.01662 15.2823 6.97322 15.254 6.9317C15.2559 6.91849 15.2577 6.90528 15.2577 6.89207C15.2577 6.79959 15.186 6.71656 15.0954 6.70335C14.8992 6.44102 14.6746 6.19757 14.4538 5.97111C14.3009 5.81447 14.1443 5.6635 13.9839 5.51441C14.065 5.46534 14.0141 5.32569 13.9254 5.32569C13.8763 5.31436 13.8254 5.31436 13.7782 5.32757C13.6234 5.1917 13.4668 5.0577 13.3026 4.93315C13.3743 4.86143 13.4555 4.7935 13.5253 4.72367C13.6895 4.56137 13.4366 4.30848 13.2705 4.4689C13.2007 4.53684 13.1044 4.62365 13.0101 4.72367C12.7572 4.55193 12.493 4.39718 12.2099 4.26885C11.9457 4.14996 11.6721 4.07825 11.3928 4.04239C11.3928 4.02918 11.3965 4.01785 11.3984 4.00464C11.4154 3.86499 11.372 3.65174 11.187 3.68759C11.1134 3.70269 11.121 3.7895 11.1682 3.82536C11.1644 3.84046 11.1587 3.85556 11.1531 3.87065C11.138 3.91028 11.1248 3.95369 11.1097 3.99332C11.1059 4.00087 11.104 4.00842 11.1002 4.01597C10.9209 4.00653 10.7398 4.00653 10.5586 4.01597C10.5548 3.96124 10.5473 3.9084 10.5378 3.85556C10.5378 3.82159 10.5284 3.79328 10.5114 3.77063C10.4812 3.72345 10.4284 3.70269 10.3737 3.70458C10.3189 3.70458 10.2661 3.72345 10.2359 3.77063C10.2189 3.79328 10.2095 3.82159 10.2095 3.85556C10.1982 3.91783 10.1906 3.98011 10.1868 4.04239C10.0208 4.05749 9.85657 4.07825 9.69238 4.099C9.59236 4.11221 9.498 4.1141 9.40553 4.11599C9.40553 4.03295 9.39986 3.94803 9.39043 3.86688C9.39609 3.81404 9.36778 3.76874 9.32626 3.73666C9.29984 3.71402 9.26587 3.69892 9.22435 3.69892C9.18283 3.69892 9.14887 3.71402 9.12245 3.73666C9.08093 3.76686 9.05262 3.81404 9.05828 3.86688C9.04884 3.9518 9.04507 4.03673 9.04318 4.12165C8.90542 4.13109 8.76576 4.1594 8.62045 4.23111C8.33926 4.37265 8.01088 4.47833 7.69761 4.58402C7.66175 4.44059 7.69006 4.25564 7.62589 4.13864C7.5957 4.08579 7.51644 4.08768 7.48624 4.13864C7.40887 4.26885 7.39188 4.45002 7.38622 4.59911C7.38622 4.62931 7.38622 4.66139 7.39188 4.69159C7.38433 4.69347 7.37678 4.69725 7.36923 4.69914C7.256 4.74065 7.14277 4.78783 7.02954 4.8369C7.02199 4.83501 7.01444 4.83124 7.005 4.82935C6.99934 4.82935 6.99745 4.82935 6.99368 4.82747C6.98802 4.81048 6.9899 4.81237 6.98802 4.79161C6.98047 4.69159 6.98047 4.59156 6.96726 4.49343C6.95971 4.42927 6.92951 4.37454 6.86157 4.35566C6.79363 4.33679 6.69739 4.37831 6.68607 4.45569C6.66153 4.61044 6.61813 4.74065 6.63889 4.89918C6.64455 4.93881 6.65776 4.97467 6.67663 5.00675C6.21993 5.24831 5.79908 5.55781 5.47825 5.96167C5.4707 5.97111 5.46316 5.98055 5.45561 5.98998C5.40465 5.9277 5.35748 5.86165 5.30086 5.80504C5.17442 5.67859 4.94418 5.76918 4.94795 5.95224C4.94795 5.98621 4.94795 6.02206 4.94795 6.05603C4.94984 6.1787 5.03665 6.24287 5.12912 6.2523C5.14988 6.28061 5.17064 6.30892 5.19329 6.33534C5.19706 6.33912 5.19895 6.34289 5.20272 6.34478C5.13101 6.4599 5.06118 6.58256 5.00457 6.70712C4.81962 6.63163 4.64223 6.54671 4.49314 6.39951C4.26478 6.17115 3.90244 6.53727 4.14023 6.75241C4.30064 6.89773 4.5271 7.05437 4.763 7.1374C4.65543 7.3148 4.5724 7.51673 4.50068 7.67337C4.35348 7.99985 4.2478 8.35653 4.17797 8.72831C4.16287 8.72643 4.14589 8.72265 4.13079 8.72077C4.10814 8.71699 4.0855 8.7151 4.06474 8.70944C4.05153 8.70756 4.04398 8.70378 4.04021 8.70189C4.04398 8.70378 4.04964 8.70755 4.05719 8.7151C4.05153 8.70944 4.04398 8.70567 4.03832 8.70001C4.03643 8.70001 4.03643 8.70001 4.03832 8.70001C3.82695 8.54526 3.53821 8.8491 3.74769 9.02649C3.84771 9.11142 3.94773 9.13406 4.07606 9.14727C4.08739 9.14727 4.1006 9.15105 4.1157 9.15294C4.08739 9.38884 4.07418 9.62662 4.06852 9.86252C4.06474 9.86252 4.06285 9.86064 4.05908 9.85875C3.93641 9.81912 3.82506 9.78515 3.69485 9.77949C3.38912 9.76439 3.38723 10.2532 3.69485 10.2569C3.82129 10.2569 3.94962 10.3173 4.0704 10.3324C4.07418 10.4645 4.08361 10.5948 4.09305 10.7212C4.11003 10.9307 4.14212 11.1364 4.18363 11.3383C4.16476 11.3327 4.14589 11.327 4.12513 11.3232C4.04209 11.3043 3.88923 11.3006 3.82318 11.244C3.64578 11.0911 3.38535 11.3459 3.56463 11.5044C3.66654 11.5931 3.78921 11.6271 3.91942 11.6573C4.03077 11.6837 4.15721 11.729 4.27422 11.7158C4.37424 12.0724 4.51389 12.4159 4.67997 12.7443C4.65543 12.7443 4.63279 12.7481 4.61014 12.7556C4.57806 12.765 4.54598 12.7764 4.5139 12.7858C4.51201 12.7858 4.51012 12.7858 4.50823 12.7858C4.50634 12.7858 4.50446 12.7858 4.50068 12.7858C4.47426 12.7858 4.44784 12.7839 4.42331 12.7801C4.28177 12.7632 4.16288 12.9104 4.16288 13.0406C4.16288 13.2236 4.32895 13.318 4.49314 13.2916C4.58183 13.2765 4.66676 13.2425 4.74225 13.1916C4.75734 13.1802 4.77433 13.1708 4.78943 13.1595C4.83094 13.1651 4.87435 13.167 4.91776 13.1689C5.20272 13.6332 5.55374 14.0578 5.95005 14.4333C5.85192 14.5485 5.7519 14.7391 5.84626 14.873C5.90854 14.9617 6.02366 14.9825 6.10669 14.907C6.17274 14.8466 6.18407 14.7542 6.22181 14.6787C6.34071 14.7806 6.46526 14.8768 6.58982 14.9693C6.56529 14.9844 6.54264 15.0033 6.52565 15.024C6.45016 15.1146 6.42752 15.2467 6.45205 15.3618C6.48791 15.5222 6.73702 15.5204 6.77476 15.3618C6.78609 15.3147 6.7842 15.2712 6.7842 15.2222C6.7842 15.2222 6.7842 15.2184 6.7842 15.2165C6.78609 15.2165 6.78798 15.2146 6.78986 15.2127C6.8144 15.1958 6.84081 15.1807 6.86724 15.1656C6.91064 15.1958 6.95405 15.2241 6.99745 15.2543C6.97292 15.2637 6.95216 15.2807 6.9465 15.3109C6.93518 15.3581 6.92385 15.4015 6.90498 15.4449C6.87667 15.509 6.83327 15.5751 6.83515 15.6468C6.83515 15.6959 6.87667 15.7412 6.92763 15.7393C7.03331 15.7355 7.09559 15.6525 7.12956 15.56C7.15409 15.4921 7.13899 15.4147 7.1239 15.3449C7.39565 15.5373 7.65986 15.728 7.98069 15.845C8.30906 15.9657 8.76576 15.9657 9.13754 15.9695C9.13754 15.9903 9.13754 16.0091 9.13754 16.0299C9.13943 16.1601 9.13188 16.2696 9.22813 16.3715C9.27908 16.4243 9.36967 16.4243 9.42062 16.3715C9.50932 16.279 9.50932 16.1828 9.51121 16.062C9.51121 16.0337 9.51121 16.0054 9.51309 15.9771C9.749 15.9846 9.99244 15.9978 10.2321 15.994C10.2416 16.0469 10.2736 16.0922 10.3303 16.0997C10.3359 16.0997 10.3397 16.0997 10.3454 16.1016C10.3454 16.1054 10.3472 16.1073 10.3491 16.1111C10.368 16.1563 10.4265 16.1828 10.4718 16.1828C10.5397 16.1828 10.5869 16.1375 10.6096 16.0771C10.6228 16.045 10.6228 16.0073 10.6171 15.9695C10.6945 15.962 10.7719 15.9506 10.8473 15.9355C10.8832 15.928 10.9172 15.9186 10.953 15.911C11.3342 15.9733 11.7475 15.7789 12.0967 15.643C12.6742 15.4203 13.3234 15.2278 13.8159 14.8391C13.8593 14.9108 13.931 14.9655 14.0197 14.9523C14.0292 14.9523 14.0386 14.9504 14.048 14.9504C14.0556 14.9523 14.0631 14.9561 14.0707 14.958C14.082 14.9636 14.1688 14.9976 14.1386 14.9882C14.1594 14.9938 14.1613 15.0014 14.1915 15.0184C14.2368 15.0429 14.2839 15.0429 14.333 15.0448C14.401 15.0486 14.4651 14.9825 14.4613 14.9165C14.4595 14.8693 14.4613 14.8183 14.4349 14.7749C14.4085 14.7296 14.3783 14.6768 14.3424 14.639C14.3028 14.5937 14.2556 14.5541 14.2047 14.522C14.433 14.3295 14.6614 14.1257 14.869 13.9125C14.9331 13.9521 15.0067 13.9672 15.0822 13.937C15.1294 13.9181 15.1558 13.8445 15.0973 13.8162C15.0634 13.8011 15.0313 13.786 15.0011 13.769C15.0445 13.72 15.0879 13.6709 15.1275 13.6218C15.1917 13.5445 15.2389 13.4614 15.2785 13.3765C15.3332 13.3765 15.3861 13.3482 15.3993 13.2821C15.4144 13.2123 15.4068 13.1425 15.3823 13.0783C15.4389 12.8613 15.471 12.6367 15.5465 12.4253C15.5465 12.4253 15.5484 12.4235 15.5503 12.4216C15.6559 12.2517 15.7314 12.08 15.7862 11.9045C15.8333 11.9083 15.8805 11.9045 15.9277 11.8913C16.0372 11.8573 16.0277 11.7176 15.9277 11.6799C15.956 11.6912 15.8975 11.6554 15.8994 11.661C15.89 11.6516 15.8805 11.644 15.8711 11.6327C15.8673 11.6289 15.8616 11.6271 15.8579 11.6233C15.9277 11.2666 15.9258 10.8986 15.922 10.5174C16.0881 10.5646 16.2806 10.6533 16.3957 10.5098C16.4259 10.4721 16.4448 10.4155 16.4127 10.3721L16.4203 10.3796ZM14.3292 6.99775C14.3651 7.04493 14.3972 7.09211 14.4293 7.13929C14.384 7.1223 14.3424 7.11098 14.2896 7.10721C14.2707 7.10721 14.2519 7.10343 14.2349 7.09777C14.2368 7.08833 14.2462 7.0789 14.2519 7.07324C14.2764 7.04682 14.3047 7.02228 14.3311 6.99775H14.3292ZM15.1483 10.3136V11.3572C15.1483 11.3572 15.1483 11.361 15.1483 11.3629C15.1068 11.3949 15.0747 11.4383 15.0558 11.4912C14.9633 11.7573 14.8482 12.0366 14.7274 12.2914C14.6444 12.4669 14.5255 12.6103 14.4066 12.7537C14.3538 12.7084 14.3028 12.6575 14.2556 12.6065C14.099 12.4423 13.8423 12.699 14.0065 12.8556C14.0688 12.916 14.133 12.9707 14.2009 13.0236C14.1952 13.033 14.1877 13.0406 14.182 13.05C14.0839 13.2029 13.9027 13.3482 13.7159 13.4784C13.6989 13.4501 13.6857 13.4199 13.6763 13.3878C13.7989 13.3274 13.7782 13.1029 13.6102 13.1029H13.5064C13.4253 13.1029 13.3536 13.1708 13.3554 13.2538C13.3592 13.3935 13.3951 13.5294 13.4687 13.6483C13.4064 13.6898 13.3498 13.7294 13.2988 13.7671C12.9837 13.9993 12.6383 14.1861 12.3496 14.4541C12.0268 14.7542 11.6551 14.9542 11.2569 15.0844C11.2701 14.9523 11.3173 14.8353 11.289 14.6938C11.272 14.6126 11.155 14.6202 11.1342 14.6938C11.0908 14.8447 11.0078 14.9806 10.987 15.141C10.987 15.1467 10.987 15.1542 10.987 15.1618C10.7398 15.2222 10.485 15.2562 10.2302 15.275C10.2265 15.1901 10.2585 15.0806 10.2585 15.0297C10.2604 14.9165 10.0868 14.9165 10.083 15.0297C10.0793 15.1165 10.0566 15.1995 10.0566 15.2863C9.97735 15.2901 9.8962 15.292 9.81694 15.292C9.70559 15.292 9.59802 15.292 9.49045 15.2901C9.52442 15.226 9.57726 15.1712 9.63388 15.1184C9.75088 15.007 9.56783 14.8259 9.45837 14.9429C9.35835 15.0467 9.28286 15.1524 9.247 15.2826C8.66008 15.2505 8.11845 15.1335 7.62401 14.7409C7.08804 14.3163 6.56151 13.9464 6.10858 13.4256C5.63112 12.8764 5.30275 12.2045 5.09704 11.5101C4.8668 10.7306 4.86114 9.91537 4.94418 9.1133C5.1763 6.86753 6.22559 5.95224 8.20904 5.1464C8.47136 5.03883 8.74123 4.98788 9.00166 4.87087C9.23757 4.7633 9.62444 4.85766 9.87921 4.82747C10.034 4.80859 10.1868 4.7935 10.3359 4.78406C10.351 4.78783 10.3661 4.78972 10.3812 4.79161C10.4114 4.79161 10.4378 4.78595 10.4624 4.7784C11.1134 4.75009 11.7192 4.83501 12.3213 5.20302C12.4741 5.29549 12.6194 5.39551 12.7572 5.49742C12.7647 5.51063 12.7723 5.52384 12.7817 5.53517C12.8006 5.5597 12.8289 5.57291 12.861 5.5748C13.0441 5.71445 13.2158 5.86354 13.3856 6.01829C13.3649 6.04094 13.3441 6.06358 13.3252 6.08812C13.2592 6.17682 13.3913 6.30892 13.4781 6.24098C13.5045 6.22022 13.531 6.19946 13.5555 6.17493C13.6461 6.25985 13.7348 6.34855 13.8235 6.43536C13.8065 6.44857 13.7914 6.46178 13.7744 6.47688C13.6895 6.56369 13.6498 6.6656 13.6423 6.78638C13.6404 6.82601 13.6763 6.8581 13.7159 6.85998C13.7876 6.85998 13.865 6.83545 13.9348 6.82224C13.9707 6.81469 13.9707 6.75807 13.9348 6.75053C13.8914 6.74298 13.8442 6.72977 13.797 6.72033C13.8159 6.64107 13.8631 6.58823 13.9103 6.52217C13.9442 6.55614 13.9782 6.59011 14.0122 6.62408C14.0933 6.70712 14.1669 6.79016 14.2368 6.87319C14.1839 6.89961 14.1292 6.92037 14.0839 6.95812C14.0216 7.00907 14.0216 7.12042 14.0537 7.18647C14.0801 7.24309 14.1386 7.27328 14.1971 7.28649C14.233 7.29404 14.2726 7.29593 14.3104 7.29593C14.367 7.29593 14.4104 7.27894 14.4632 7.25818C14.4783 7.25252 14.4897 7.2412 14.4953 7.22987C14.7293 7.60732 14.869 8.0074 15.0011 8.49053C14.9162 8.51506 14.8256 8.53393 14.7784 8.61131C14.7614 8.63962 14.7595 8.68302 14.7784 8.71133C14.8407 8.80192 14.9237 8.81135 15.0086 8.78493C15.0218 8.79248 15.0351 8.80003 15.0501 8.80569C15.0634 9.04725 15.0426 9.2907 15.1124 9.5266C15.186 9.77383 15.1502 10.0531 15.1502 10.3098L15.1483 10.3136Z" fill="#28ABEA"/>
<path d="M18.0759 9.29802C18.3873 9.13194 18.6628 8.8734 18.7477 8.56956C18.8477 8.21665 18.6383 7.85997 18.2325 7.72409C18.2023 7.71465 18.174 7.7071 18.1438 7.69956C18.4288 7.31645 18.5401 6.84088 18.3382 6.29736C18.0891 5.62552 17.3361 5.28393 16.6416 5.35376C16.8284 5.0537 16.936 4.69324 16.8586 4.38751C16.768 4.03272 16.4095 3.82701 15.9886 3.91194C15.9584 3.9176 15.9282 3.92704 15.8999 3.93458C15.9547 3.4609 15.8131 2.99287 15.3677 2.62298C14.8148 2.16627 13.9938 2.24554 13.4258 2.65506C13.4371 2.30215 13.3503 1.93604 13.1314 1.70957C12.8747 1.44725 12.4614 1.44914 12.1406 1.73222C12.118 1.75298 12.0953 1.77562 12.0746 1.79638C11.8858 1.35855 11.531 1.02263 10.9592 0.926382C10.2515 0.807488 9.58157 1.28684 9.29471 1.92471C9.12864 1.61332 8.87009 1.33779 8.56625 1.25287C8.21335 1.15285 7.85666 1.36233 7.72079 1.76807C7.71135 1.79827 7.7038 1.82658 7.69625 1.85677C7.31315 1.57181 6.83757 1.46046 6.29406 1.66239C5.62221 1.9115 5.28063 2.66261 5.35046 3.35899C5.05039 3.17215 4.68994 3.06458 4.38421 3.14196C4.02941 3.23254 3.82371 3.59111 3.91052 4.01196C3.91618 4.04215 3.92373 4.07235 3.93317 4.10066C3.45948 4.04593 2.99145 4.18747 2.62156 4.63285C2.16486 5.1858 2.24412 6.00673 2.65364 6.57289C2.30074 6.56157 1.93462 6.64838 1.70816 6.8673C1.44583 7.12396 1.44772 7.53726 1.73269 7.85808C1.75345 7.88073 1.77609 7.90337 1.79685 7.92413C1.35902 8.11285 1.0231 8.46765 0.926854 9.04136C0.806073 9.74906 1.28731 10.419 1.92518 10.7059C1.61379 10.8719 1.33826 11.1305 1.25334 11.4343C1.15332 11.7872 1.3628 12.1439 1.76854 12.2798C1.79874 12.2892 1.82705 12.2968 1.85724 12.3043C1.57228 12.6874 1.46093 13.163 1.66286 13.7065C1.91197 14.3784 2.66497 14.72 3.35946 14.6501C3.17263 14.9502 3.06505 15.3106 3.14243 15.6164C3.23301 15.9712 3.59158 16.1769 4.01243 16.0901C4.04262 16.0844 4.07282 16.075 4.10113 16.0674C4.0464 16.5411 4.18794 17.0091 4.63332 17.379C5.18627 17.8357 6.0072 17.7565 6.57525 17.3469C6.56393 17.6998 6.65074 18.066 6.86966 18.2924C7.12631 18.5547 7.53961 18.5529 7.86044 18.2679C7.88308 18.2471 7.90573 18.2245 7.92649 18.2018C8.11521 18.6397 8.47001 18.9756 9.04183 19.0718C9.74953 19.1907 10.4195 18.7114 10.7063 18.0735C10.8724 18.3849 11.131 18.6604 11.4348 18.7454C11.7877 18.8454 12.1444 18.6359 12.2803 18.2302C12.2897 18.2 12.2973 18.1716 12.3048 18.1415C12.6879 18.4264 13.1635 18.5378 13.707 18.3358C14.3788 18.0867 14.7204 17.3356 14.6506 16.6392C14.9507 16.8261 15.3111 16.9336 15.6168 16.8563C15.9716 16.7657 16.1773 16.4071 16.0924 15.9863C16.0868 15.9561 16.0773 15.9259 16.0698 15.8976C16.5435 15.9523 17.0115 15.8108 17.3814 15.3654C17.8381 14.8124 17.7588 13.9915 17.3493 13.4253C17.7022 13.4367 18.0683 13.3498 18.2948 13.1309C18.5571 12.8743 18.5552 12.461 18.2721 12.1401C18.2514 12.1175 18.2287 12.0949 18.2061 12.0741C18.6439 11.8854 18.9798 11.5306 19.0761 10.9569C19.195 10.2492 18.7156 9.57921 18.0778 9.29235L18.0759 9.29802ZM16.8964 11.5438C16.4566 11.5155 16.3698 12.1401 16.8039 12.21C17.0058 12.2421 17.2096 12.2553 17.4097 12.2477C17.706 12.3742 17.9985 12.5421 17.755 12.7195C17.6097 12.8252 17.3682 12.8497 17.1738 12.829C16.97 12.8082 16.7378 12.7252 16.5529 12.7969C16.4378 12.8403 16.3585 12.9516 16.3944 13.0819C16.4246 13.1932 16.5019 13.263 16.5982 13.3102C16.9398 13.7782 17.204 14.2293 16.9719 14.8294C16.6359 15.6994 15.6961 15.1125 15.2035 14.786C14.8374 14.5426 14.4487 15.0389 14.7902 15.3163C14.9488 15.4446 15.1186 15.5598 15.296 15.6541C15.4885 15.9108 15.6565 16.2014 15.3564 16.2335C15.1771 16.2524 14.9563 16.1523 14.7978 16.0391C14.6317 15.9202 14.4732 15.7315 14.2769 15.6994C14.1561 15.6805 14.0316 15.7353 13.9957 15.8655C13.9655 15.9768 13.9976 16.0769 14.058 16.1656C14.1203 16.7411 14.1222 17.2639 13.6221 17.6659C12.8955 18.2509 12.3765 17.2733 12.1123 16.7449C11.916 16.3505 11.3329 16.5864 11.4895 16.9978C11.5612 17.1884 11.6537 17.3734 11.7594 17.5432C11.7971 17.8621 11.799 18.1981 11.5216 18.0754C11.3574 18.0037 11.2159 17.8055 11.1347 17.6281C11.0498 17.4413 11.0064 17.1978 10.8517 17.0733C10.7554 16.9959 10.6214 16.9827 10.5252 17.0771C10.444 17.1582 10.4214 17.2601 10.4308 17.3677C10.1968 17.8961 9.93825 18.3509 9.30226 18.4491C8.37942 18.5925 8.41905 17.4866 8.45679 16.8959C8.4851 16.4562 7.86044 16.3694 7.79061 16.8034C7.75853 17.0054 7.74532 17.2092 7.75287 17.4092C7.62643 17.7055 7.45846 17.998 7.28107 17.7546C7.17538 17.6111 7.15085 17.3677 7.16972 17.1733C7.19048 16.9695 7.27352 16.7374 7.2018 16.5524C7.1584 16.4373 7.04705 16.358 6.91684 16.3939C6.80549 16.4241 6.73567 16.5015 6.68849 16.5996C6.22235 16.9412 5.76942 17.2054 5.17117 16.9714C4.30117 16.6355 4.8862 15.6956 5.21458 15.205C5.45803 14.8388 4.96169 14.4501 4.68427 14.7917C4.55594 14.9502 4.44083 15.12 4.34647 15.2993C4.08981 15.4918 3.79917 15.6598 3.76709 15.3597C3.74822 15.1823 3.84824 14.9596 3.96147 14.8011C4.08037 14.635 4.26909 14.4765 4.30117 14.2802C4.32004 14.1595 4.26532 14.0349 4.1351 13.999C4.02375 13.9688 3.92373 14.0009 3.83503 14.0632C3.25943 14.1255 2.73668 14.1274 2.33282 13.6273C1.74779 12.9007 2.72536 12.3798 3.25377 12.1175C3.6482 11.9212 3.4123 11.3381 3.00089 11.4928C2.81028 11.5645 2.62533 11.657 2.45549 11.7627C2.13655 11.8004 1.80063 11.8023 1.9233 11.5249C1.99501 11.3607 2.19317 11.2192 2.37056 11.138C2.5574 11.0531 2.80085 11.0097 2.9254 10.855C3.00278 10.7587 3.01599 10.6247 2.92163 10.5285C2.84048 10.4473 2.73857 10.4247 2.631 10.4341C2.10258 10.2001 1.64776 9.94155 1.54963 9.30556C1.4062 8.38461 2.5121 8.42235 3.1028 8.4601C3.54252 8.48841 3.62933 7.86374 3.19527 7.79392C2.99334 7.76183 2.78952 7.74862 2.58948 7.75617C2.29319 7.62973 2.00067 7.46177 2.24412 7.28437C2.38944 7.17869 2.631 7.15415 2.82538 7.17303C3.0292 7.19378 3.26132 7.27682 3.44627 7.20511C3.56139 7.1617 3.64065 7.05036 3.60668 6.92014C3.57649 6.80879 3.49911 6.73897 3.40097 6.69179C3.05939 6.22565 2.79518 5.77272 3.02731 5.17448C3.36323 4.30448 4.30306 4.88951 4.79562 5.21788C5.16174 5.46133 5.5505 4.965 5.20892 4.68758C5.05039 4.55925 4.88054 4.44413 4.70315 4.34977C4.51065 4.09311 4.34269 3.80248 4.64275 3.7704C4.82015 3.75153 5.04284 3.85155 5.20137 3.96478C5.36744 4.08367 5.52597 4.27239 5.72224 4.30448C5.84302 4.32335 5.96757 4.26862 6.00343 4.1384C6.03362 4.02706 6.00343 3.92704 5.93927 3.83834C5.87699 3.26274 5.8751 2.73998 6.37521 2.33801C7.10178 1.75298 7.62265 2.73055 7.88497 3.25897C8.08124 3.65339 8.66439 3.41749 8.50775 3.00608C8.43604 2.81547 8.34545 2.63053 8.23788 2.46068C8.20013 2.14174 8.19825 1.80582 8.47567 1.9266C8.63985 1.99831 8.78139 2.19647 8.86254 2.37387C8.94747 2.5607 8.99087 2.80415 9.14562 2.9287C9.24187 3.00608 9.37586 3.01929 9.47211 2.92493C9.55326 2.84378 9.57591 2.74187 9.56647 2.6343C9.80048 2.10588 10.059 1.65107 10.695 1.55293C11.6179 1.40951 11.5782 2.51541 11.5405 3.1061C11.5122 3.54582 12.1368 3.63263 12.2067 3.19857C12.2387 2.99664 12.252 2.79283 12.2444 2.59278C12.3709 2.29649 12.5388 2.00397 12.7162 2.24742C12.8219 2.39274 12.8464 2.6343 12.8276 2.82868C12.8068 3.0325 12.7238 3.26463 12.7955 3.44957C12.8389 3.56469 12.9502 3.64395 13.0804 3.6081C13.1918 3.5779 13.2616 3.50053 13.3088 3.40428C13.7768 3.0627 14.2279 2.79849 14.8261 3.03061C15.6961 3.36654 15.1111 4.30636 14.7827 4.79892C14.5393 5.16504 15.0356 5.5538 15.313 5.21222C15.4413 5.0537 15.5565 4.88385 15.6508 4.70645C15.9075 4.51396 16.1981 4.34599 16.2302 4.64606C16.2491 4.82534 16.149 5.04615 16.0358 5.20467C15.9169 5.37075 15.7263 5.52927 15.6961 5.72554C15.6772 5.84632 15.732 5.97088 15.8622 6.00673C15.9735 6.03693 16.0735 6.00673 16.1622 5.94446C16.7378 5.88218 17.2606 5.88029 17.6645 6.3804C18.2495 7.10697 17.2719 7.62784 16.7435 7.89016C16.3491 8.08643 16.585 8.66958 16.9964 8.51294C17.187 8.44123 17.3719 8.34875 17.5418 8.24307C17.8607 8.20533 18.1966 8.20344 18.074 8.48086C18.0023 8.64504 17.8041 8.78658 17.6267 8.86773C17.4399 8.95266 17.1964 8.99606 17.0719 9.15082C16.9945 9.24706 16.9813 9.38105 17.0757 9.4773C17.1568 9.55845 17.2587 9.5811 17.3663 9.57166C17.8947 9.80567 18.3495 10.0642 18.4476 10.7002C18.5911 11.6212 17.4852 11.5834 16.8945 11.5476L16.8964 11.5438Z" fill="#28ABEA"/>
</svg>
